<?xml version="1.0" encoding="iso-8859-1"?>
<!-- Uploaded to: SVG Repo, www.svgrepo.com, Generator: SVG Repo Mixer Tools -->
<!DOCTYPE svg PUBLIC "-//W3C//DTD SVG 1.1//EN" "http://www.w3.org/Graphics/SVG/1.1/DTD/svg11.dtd">
<svg fill="#000000" version="1.1" id="Capa_1" xmlns="http://www.w3.org/2000/svg" xmlns:xlink="http://www.w3.org/1999/xlink" 
	 width="800px" height="800px" viewBox="0 0 32.001 32.001"
	 xml:space="preserve">
<g>
	<path d="M27.924,3.039C23.22,3.142,17.689,10.617,17.37,11.06c-0.004,0.005-0.008,0.012-0.012,0.018
		c-0.397-0.203-0.979-0.089-1.018-0.271c-0.06-0.282,0.453-0.8,0.459-0.804c0.225-0.224,0.363-0.533,0.363-0.875
		c0-0.434-0.225-0.814-0.564-1.034c0.135-0.215,0.285-0.43,0.436-0.642c0.512-0.728,1.035-1.479,0.928-2.196
		c0-0.007,0.004-0.013,0.004-0.02c0-0.021-0.009-0.041-0.013-0.062c0-0.001,0-0.003,0-0.004h-0.001
		c-0.031-0.168-0.171-0.299-0.35-0.299c-0.2,0-0.363,0.163-0.363,0.364c0,0.201,0.163,0.364,0.363,0.364
		c0.046,0,0.088-0.011,0.129-0.026c-0.057,0.543-0.463,1.127-0.893,1.74c-0.156,0.221-0.312,0.444-0.455,0.669
		c-0.14-0.056-0.293-0.089-0.453-0.089c-0.187,0-0.359,0.043-0.518,0.117c-0.235-0.408-0.445-0.733-0.631-1.02
		c-0.391-0.603-0.646-1.003-0.785-1.638c0.018,0.003,0.034,0.011,0.053,0.011c0.202,0,0.363-0.163,0.363-0.364
		s-0.161-0.363-0.363-0.363c-0.201,0-0.363,0.163-0.363,0.363c0,0.048,0.01,0.092,0.027,0.133c0.131,0.843,0.427,1.307,0.868,1.989
		c0.184,0.284,0.393,0.607,0.625,1.011c-0.308,0.224-0.51,0.585-0.51,0.995c0,0.342,0.14,0.65,0.364,0.875
		c0.001,0.002,0.458,0.583,0.355,0.873c-0.065,0.188-0.515,0.171-0.831,0.497C13.96,10.521,8.632,3.514,4.075,3.415
		c-4.206-1.353-4.81-1.72-3.375,2.538c1.436,4.259,1.84,9.628,6.162,9.175c-1.035,0.125-3.155,2.351-1.144,3.845
		c-0.628,1.955,0.742,2.504,2.143,2.646c-0.422,1.536,1.892,1.445,1.892,1.445s-4.329,6.632,0.441,6.816
		c1.908-0.094-1.18-3.868,0.675-5.729c0.084,0.865,0.616,1.034,1.342,1.016c0.625-0.015,2.313-6.324,2.726-9.763
		c0.083,0.369,0.166,0.756,0.24,1.161c0.396,2.17,0.609,4.732,0.754,6.186c0-1.125,0.306-3.801,0.771-6.22
		c0.108-0.566,0.227-1.117,0.346-1.633c0.387,3.408,2.109,9.88,2.742,9.896c0.726,0.019,1.258-0.15,1.342-1.016
		c1.854,1.86-1.232,5.635,0.676,5.729c4.771-0.185,0.439-6.816,0.439-6.816s2.314,0.091,1.894-1.444
		c1.399-0.142,2.771-0.69,2.143-2.646c2.012-1.495-0.108-3.72-1.145-3.845c4.322,0.454,4.728-4.916,6.161-9.174
		C32.735,1.319,32.132,1.686,27.924,3.039z M5.79,18.285c-0.221-0.059-0.529-0.328-0.521-0.895c0.006-0.566,0.551-0.983,0.67-1.087
		C6.057,16.199,6.011,18.345,5.79,18.285z M1.161,3.009C1.88,2.856,2.95,4.604,2.95,4.604S1.09,4.668,0.774,4.282
		C0.458,3.894,0.442,3.16,1.161,3.009z M1.953,5.664c0.541-0.256,1.72,0.926,1.72,0.926S2.208,6.995,1.886,6.748
		C1.562,6.5,1.411,5.919,1.953,5.664z M2.498,9.752c-0.313-0.109-0.574-0.519-0.22-0.854C2.634,8.562,3.84,9.177,3.84,9.177
		S2.811,9.862,2.498,9.752z M3.913,12.404c-0.327-0.045-0.666-0.394-0.386-0.793c0.28-0.399,1.587-0.037,1.587-0.037
		S4.24,12.45,3.913,12.404z M7.224,20.742c-0.188,0.123-0.555,0.185-0.863-0.151c-0.311-0.335-0.158-0.964-0.135-1.108
		C6.252,19.338,7.413,20.619,7.224,20.742z M9.257,22.436c-0.119,0.125-0.384,0.234-0.674,0.038
		c-0.291-0.197-0.287-0.695-0.293-0.809C8.282,21.553,9.377,22.311,9.257,22.436z M10.902,23.559
		c-0.313,0.106-0.772-0.053-0.702-0.535c0.063-0.426,1.012-0.683,1.238-0.737c-0.003-0.002-0.004-0.005-0.007-0.008
		c-0.243-0.19,0.055-0.003,0.055-0.003s-0.018,0.004-0.048,0.011C11.663,22.491,11.211,23.452,10.902,23.559z M26.063,15.929
		c0.118,0.104,0.662,0.521,0.669,1.087c0.008,0.565-0.301,0.836-0.521,0.895S25.944,15.825,26.063,15.929z M21.1,23.184
		c-0.31-0.106-0.763-1.067-0.535-1.272c-0.032-0.007-0.049-0.011-0.049-0.011s0.297-0.187,0.055,0.004
		c-0.002,0.002-0.005,0.005-0.006,0.007c0.225,0.055,1.174,0.312,1.235,0.737C21.87,23.131,21.411,23.29,21.1,23.184z
		 M23.417,22.099c-0.29,0.196-0.555,0.087-0.673-0.038c-0.121-0.125,0.976-0.883,0.967-0.771
		C23.705,21.403,23.708,21.901,23.417,22.099z M25.773,19.107c0.024,0.144,0.176,0.773-0.134,1.107
		c-0.31,0.336-0.676,0.274-0.863,0.151C24.589,20.244,25.749,18.962,25.773,19.107z M28.089,12.029
		c-0.327,0.045-1.201-0.831-1.201-0.831s1.306-0.363,1.587,0.037C28.755,11.635,28.415,11.983,28.089,12.029z M29.502,9.376
		c-0.312,0.11-1.341-0.575-1.341-0.575s1.207-0.614,1.562-0.279C30.077,8.858,29.814,9.268,29.502,9.376z M30.115,6.372
		c-0.323,0.248-1.788-0.157-1.788-0.157s1.178-1.182,1.721-0.926C30.59,5.544,30.438,6.124,30.115,6.372z M31.227,3.907
		c-0.314,0.387-2.177,0.322-2.177,0.322s1.07-1.747,1.79-1.595C31.559,2.785,31.541,3.519,31.227,3.907z"/>
</g>
</svg>