<?xml version="1.0" standalone="no"?>
<!DOCTYPE svg PUBLIC "-//W3C//DTD SVG 20010904//EN"
 "http://www.w3.org/TR/2001/REC-SVG-20010904/DTD/svg10.dtd">
<svg version="1.0" xmlns="http://www.w3.org/2000/svg"
 width="300.000000pt" height="91.000000pt" viewBox="0 0 300.000000 91.000000"
 preserveAspectRatio="xMidYMid meet">
<metadata>
Created by potrace 1.10, written by Peter Selinger 2001-2011
</metadata>
<g transform="translate(0.000000,91.000000) scale(0.100000,-0.100000)"
fill="#000000" stroke="none">
<path d="M387 784 c-4 -4 -7 -25 -7 -46 0 -39 0 -40 -37 -36 -30 2 -38 -1 -41
-15 -3 -14 4 -17 37 -17 l41 0 0 -40 c0 -33 3 -40 20 -40 17 0 20 7 20 40 l0
40 41 0 c33 0 40 3 37 17 -2 12 -14 17 -42 17 -39 1 -40 1 -40 40 -1 37 -14
55 -29 40z"/>
<path d="M2325 780 c-3 -5 -3 -26 1 -46 l7 -36 -42 4 c-34 3 -41 1 -41 -14 0
-14 8 -18 41 -18 l41 0 -7 -40 c-6 -36 -5 -40 14 -40 18 0 21 6 21 40 0 40 0
40 40 40 33 0 40 3 40 19 0 16 -5 18 -40 14 l-40 -6 0 47 c0 33 -4 46 -14 46
-8 0 -18 -4 -21 -10z"/>
<path d="M1470 650 c0 -38 4 -50 15 -50 11 0 15 12 15 50 0 38 -4 50 -15 50
-11 0 -15 -12 -15 -50z"/>
<path d="M1342 647 c-9 -11 -4 -20 28 -45 51 -42 65 -22 18 25 -29 28 -37 32
-46 20z"/>
<path d="M1580 625 c-25 -26 -31 -38 -23 -46 9 -9 21 -2 47 26 32 33 39 55 17
55 -4 0 -22 -16 -41 -35z"/>
<path d="M127 630 c-3 -8 -7 -24 -9 -35 -3 -17 -10 -19 -41 -17 -45 4 -47 -8
-7 -31 25 -15 28 -21 20 -37 -5 -10 -10 -27 -10 -36 0 -15 4 -14 25 6 l25 24
32 -24 c33 -24 35 -20 13 32 -5 13 1 22 24 35 41 24 39 35 -5 31 -34 -3 -38 0
-49 32 -9 23 -15 30 -18 20z"/>
<path d="M888 634 c-3 -5 -8 -21 -12 -36 -5 -24 -9 -26 -41 -21 -41 7 -46 -8
-10 -27 26 -14 31 -35 16 -60 -17 -26 1 -32 25 -9 l24 23 30 -22 c31 -23 38
-16 19 20 -10 19 -7 25 22 50 l34 29 -39 -3 c-36 -3 -40 -1 -51 31 -6 19 -14
31 -17 25z"/>
<path d="M2063 609 c-9 -32 -12 -34 -46 -31 -45 4 -47 -7 -6 -31 23 -13 29
-22 24 -35 -22 -52 -20 -56 13 -32 l32 24 25 -24 c21 -20 25 -21 25 -6 0 9 -5
26 -10 36 -8 16 -5 22 20 37 41 24 38 35 -7 31 -34 -3 -38 0 -41 22 -6 41 -20
45 -29 9z"/>
<path d="M2823 609 c-9 -32 -12 -34 -46 -31 -45 4 -47 -7 -7 -30 27 -15 29
-20 20 -43 -16 -42 -12 -47 20 -23 l30 22 25 -24 c21 -20 25 -21 25 -6 0 9 -5
26 -10 36 -8 16 -5 22 20 37 41 24 38 35 -7 31 -34 -3 -38 0 -41 22 -6 41 -20
45 -29 9z"/>
<path d="M1445 578 c-32 -17 -45 -39 -45 -78 0 -74 92 -109 145 -55 68 67 -17
179 -100 133z m70 -48 c37 -41 -24 -97 -63 -58 -17 17 -15 44 4 62 21 21 37
20 59 -4z"/>
<path d="M1280 505 c0 -11 12 -15 50 -15 38 0 50 4 50 15 0 11 -12 15 -50 15
-38 0 -50 -4 -50 -15z"/>
<path d="M1590 505 c0 -11 11 -15 40 -15 22 0 43 0 48 -1 4 0 8 7 10 15 3 13
-7 16 -47 16 -39 0 -51 -4 -51 -15z"/>
<path d="M1362 407 c-33 -34 -41 -57 -20 -57 16 0 68 51 68 66 0 26 -18 22
-48 -9z"/>
<path d="M1554 429 c-3 -6 10 -27 30 -47 28 -29 38 -34 48 -24 9 9 5 20 -22
47 -36 38 -45 41 -56 24z"/>
<path d="M1470 350 c0 -38 4 -50 15 -50 11 0 15 12 15 50 0 38 -4 50 -15 50
-11 0 -15 -12 -15 -50z"/>
<path d="M600 200 c0 -40 0 -40 -40 -40 -29 0 -40 -4 -40 -15 0 -11 11 -15 40
-15 l40 0 0 -45 c0 -35 3 -43 15 -39 10 4 15 20 15 45 0 39 0 39 40 39 29 0
40 4 40 15 0 11 -11 15 -40 15 -40 0 -40 0 -40 40 0 29 -4 40 -15 40 -11 0
-15 -11 -15 -40z"/>
<path d="M2540 200 c0 -40 0 -40 -40 -40 -29 0 -40 -4 -40 -15 0 -11 11 -15
40 -15 40 0 40 0 40 -40 0 -34 3 -40 21 -40 20 0 21 4 15 40 l-6 40 45 0 c33
0 45 4 45 15 0 11 -12 15 -45 15 l-45 0 6 40 c6 36 5 40 -15 40 -18 0 -21 -6
-21 -40z"/>
</g>
</svg>
