<?xml version="1.0" standalone="no"?>
<!DOCTYPE svg PUBLIC "-//W3C//DTD SVG 20010904//EN"
 "http://www.w3.org/TR/2001/REC-SVG-20010904/DTD/svg10.dtd">
<svg version="1.0" xmlns="http://www.w3.org/2000/svg"
 width="300.000000pt" height="124.000000pt" viewBox="0 0 300.000000 124.000000"
 preserveAspectRatio="xMidYMid meet">
<metadata>
Created by potrace 1.10, written by Peter Selinger 2001-2011
</metadata>
<g transform="translate(0.000000,124.000000) scale(0.100000,-0.100000)"
fill="#000000" stroke="none">
<path d="M1066 1175 c-31 -31 -27 -84 8 -107 21 -14 73 -8 89 10 22 25 21 75
-1 95 -23 21 -76 22 -96 2z m79 -50 c0 -24 -5 -31 -24 -33 -32 -5 -54 23 -40
50 7 13 19 18 37 16 23 -2 27 -8 27 -33z"/>
<path d="M2666 1175 c-31 -31 -27 -84 8 -107 24 -16 75 -8 90 14 34 49 7 108
-49 108 -18 0 -40 -7 -49 -15z m80 -39 c8 -32 -2 -46 -31 -46 -29 0 -47 27
-34 52 15 28 57 23 65 -6z"/>
<path d="M1282 1142 c-11 -7 -8 -11 10 -15 42 -11 107 -65 128 -108 63 -122
17 -265 -102 -323 l-53 -25 59 -1 c131 0 246 110 246 235 0 81 -61 175 -140
215 -42 21 -130 34 -148 22z m127 -36 c35 -18 109 -98 121 -132 15 -39 12
-111 -6 -147 -21 -41 -71 -95 -106 -113 -43 -22 -52 -16 -18 12 113 95 100
299 -24 375 -37 23 -10 27 33 5z"/>
<path d="M850 1105 l0 -35 -35 14 c-32 14 -34 13 -40 -5 -8 -24 -9 -23 33 -35
l34 -9 -22 -28 c-22 -27 -22 -29 -5 -45 13 -13 19 -14 22 -5 3 7 13 23 22 35
l18 22 17 -32 c14 -28 19 -31 37 -22 20 11 20 11 -1 40 -26 36 -26 37 10 45
19 4 30 13 30 24 0 28 -10 31 -41 16 -38 -20 -39 -20 -39 20 0 28 -4 35 -20
35 -16 0 -20 -7 -20 -35z"/>
<path d="M1727 1105 c6 -40 4 -41 -38 -19 -34 17 -34 17 -43 -12 -6 -19 -2
-23 29 -28 41 -8 42 -12 14 -43 -18 -18 -20 -25 -9 -38 18 -22 28 -19 46 17
16 31 17 31 31 12 8 -10 18 -26 23 -34 8 -13 11 -13 26 2 17 17 17 19 -4 41
-29 31 -28 35 14 43 25 5 34 11 30 21 -3 8 -6 19 -6 24 0 5 -16 2 -36 -6 -48
-20 -47 -20 -40 20 6 32 5 35 -18 35 -23 0 -24 -3 -19 -35z"/>
<path d="M255 1050 l-30 -80 -55 -1 c-30 0 -72 -3 -92 -7 l-37 -7 70 -58 c38
-33 69 -62 69 -65 0 -4 -11 -44 -24 -90 -27 -95 -28 -95 64 -32 32 22 64 40
69 40 6 0 42 -20 80 -45 38 -25 72 -45 74 -45 3 0 -6 39 -19 88 l-24 87 23 20
c12 11 45 39 71 62 l49 41 -64 6 c-35 3 -77 7 -93 8 -26 3 -32 10 -59 81 -16
42 -33 77 -37 77 -3 0 -19 -36 -35 -80z m103 -115 c52 8 142 15 142 11 0 -2
-30 -23 -67 -47 -38 -24 -70 -44 -72 -46 -2 -1 9 -33 24 -70 15 -37 30 -75 33
-83 3 -8 -13 1 -34 20 -21 20 -51 46 -66 59 l-27 24 -66 -57 c-36 -32 -65 -56
-65 -54 0 2 13 35 30 73 16 39 30 75 30 80 0 6 -32 30 -70 54 -39 24 -70 45
-68 46 2 2 40 0 86 -4 l82 -7 10 36 c5 19 12 49 15 65 13 61 18 58 37 -22 19
-80 20 -82 46 -78z"/>
<path d="M2112 1053 c-27 -70 -33 -78 -59 -81 -15 -1 -57 -5 -93 -8 l-65 -6
30 -27 c17 -14 49 -42 72 -61 l42 -35 -24 -84 c-14 -47 -23 -86 -21 -88 2 -2
35 16 74 41 39 26 74 46 79 46 4 0 39 -20 77 -45 38 -25 71 -44 73 -41 3 2 -5
41 -17 85 -26 94 -29 87 66 163 l54 43 -37 7 c-21 4 -63 7 -93 7 l-55 1 -29
75 c-16 42 -32 78 -37 80 -4 3 -21 -30 -37 -72z m48 -3 c5 -22 15 -58 20 -79
8 -29 15 -38 28 -36 9 2 49 6 87 9 l70 6 -77 -51 -76 -51 25 -56 c14 -31 29
-68 35 -82 l9 -25 -28 25 c-15 13 -45 40 -65 59 -42 39 -35 41 -120 -38 -21
-19 -40 -32 -43 -29 -3 3 8 35 25 72 16 38 30 70 30 72 0 2 -32 25 -70 50 -39
26 -69 48 -68 49 2 2 38 0 82 -4 89 -8 83 -13 106 92 7 31 15 57 16 57 2 0 8
-18 14 -40z"/>
<path d="M626 927 c-22 -16 -18 -55 7 -71 39 -24 79 44 41 71 -10 7 -21 13
-24 13 -3 0 -14 -6 -24 -13z"/>
<path d="M2486 927 c-22 -16 -18 -55 7 -71 39 -24 79 44 41 71 -10 7 -21 13
-24 13 -3 0 -14 -6 -24 -13z"/>
<path d="M2883 733 c-21 -8 -16 -61 6 -68 28 -8 51 5 51 29 0 36 -25 53 -57
39z"/>
<path d="M633 625 c6 -38 1 -41 -38 -23 -22 10 -28 9 -36 -3 -14 -22 -11 -28
19 -35 42 -10 44 -13 21 -46 -18 -25 -19 -32 -8 -39 21 -13 26 -11 47 23 l20
31 16 -31 c18 -34 23 -37 45 -23 11 7 10 14 -8 40 l-22 31 26 10 c14 5 31 10
36 10 11 0 11 11 0 29 -8 12 -14 13 -36 3 -41 -19 -48 -15 -42 23 5 32 4 35
-20 35 -24 0 -25 -3 -20 -35z"/>
<path d="M2490 624 c0 -32 -2 -35 -22 -28 -38 12 -52 10 -56 -9 -3 -12 5 -19
27 -23 42 -9 45 -17 16 -44 -19 -18 -22 -26 -14 -37 18 -21 33 -15 54 19 l18
32 16 -32 c16 -34 32 -40 50 -19 8 11 6 18 -9 32 -28 26 -25 42 11 49 22 4 30
11 27 23 -4 19 -18 21 -55 9 -21 -7 -23 -4 -23 28 0 29 -4 36 -20 36 -16 0
-20 -7 -20 -36z"/>
<path d="M855 570 c0 -41 3 -50 18 -50 14 0 17 9 17 50 0 41 -3 50 -17 50 -15
0 -18 -9 -18 -50z"/>
<path d="M1090 570 c0 -43 3 -50 20 -50 17 0 20 7 20 50 0 43 -3 50 -20 50
-17 0 -20 -7 -20 -50z"/>
<path d="M1730 570 c0 -43 3 -50 20 -50 17 0 20 7 20 50 0 43 -3 50 -20 50
-17 0 -20 -7 -20 -50z"/>
<path d="M2690 570 c0 -43 3 -50 20 -50 17 0 20 7 20 50 0 43 -3 50 -20 50
-17 0 -20 -7 -20 -50z"/>
<path d="M855 430 c0 -41 3 -50 18 -50 14 0 17 9 17 50 0 41 -3 50 -17 50 -15
0 -18 -9 -18 -50z"/>
<path d="M1064 454 c-30 -29 -27 -67 8 -96 64 -55 148 42 88 102 -27 27 -66
25 -96 -6z m80 -26 c13 -21 -2 -51 -26 -56 -16 -3 -48 23 -48 38 0 15 32 41
48 38 8 -2 20 -11 26 -20z"/>
<path d="M1730 430 c0 -43 3 -50 20 -50 17 0 20 7 20 50 0 43 -3 50 -20 50
-17 0 -20 -7 -20 -50z"/>
<path d="M2665 455 c-14 -13 -25 -33 -25 -45 0 -28 43 -70 73 -70 31 0 67 39
67 73 0 34 -32 67 -65 67 -14 0 -37 -11 -50 -25z m79 -27 c13 -21 -2 -51 -26
-56 -16 -3 -48 23 -48 38 0 15 32 41 48 38 8 -2 20 -11 26 -20z"/>
<path d="M853 306 c6 -39 2 -41 -39 -26 -21 8 -29 8 -36 -2 -13 -21 -9 -27 20
-34 42 -10 44 -13 22 -45 -12 -16 -18 -33 -15 -39 12 -19 34 -10 52 20 l17 30
21 -34 c18 -30 22 -33 39 -21 18 13 18 15 -3 41 -25 31 -21 39 18 47 24 5 28
10 24 27 -4 13 -11 19 -20 16 -8 -4 -26 -9 -40 -12 -23 -6 -25 -4 -21 27 3 29
0 34 -21 37 -22 4 -24 1 -18 -32z"/>
<path d="M1730 300 l0 -41 -30 16 c-38 20 -47 19 -53 -5 -4 -17 0 -22 24 -27
40 -8 45 -20 18 -49 -12 -13 -21 -25 -18 -27 2 -1 12 -8 21 -16 15 -11 19 -8
33 18 20 39 26 39 49 0 17 -28 20 -30 34 -15 15 14 14 18 -6 45 l-22 30 35 11
c37 12 40 17 26 39 -6 10 -13 11 -29 2 -34 -18 -42 -13 -42 24 0 28 -4 35 -20
35 -17 0 -20 -7 -20 -40z"/>
<path d="M1090 255 c0 -48 2 -55 20 -55 18 0 20 7 20 55 0 48 -2 55 -20 55
-18 0 -20 -7 -20 -55z"/>
<path d="M2690 255 c0 -48 2 -55 20 -55 18 0 20 7 20 55 0 48 -2 55 -20 55
-18 0 -20 -7 -20 -55z"/>
<path d="M1061 134 c-24 -31 -25 -35 -9 -69 27 -60 128 -41 128 24 0 69 -77
98 -119 45z m85 -28 c8 -32 -2 -46 -31 -46 -29 0 -47 27 -34 52 15 28 57 23
65 -6z"/>
<path d="M2661 134 c-23 -30 -23 -30 -15 -62 8 -27 56 -54 81 -45 52 18 68 67
37 111 -22 32 -76 30 -103 -4z m77 -16 c35 -35 -10 -81 -48 -50 -19 16 -21 22
-11 40 13 24 40 29 59 10z"/>
</g>
</svg>
