<?xml version="1.0" standalone="no"?>
<!DOCTYPE svg PUBLIC "-//W3C//DTD SVG 20010904//EN"
 "http://www.w3.org/TR/2001/REC-SVG-20010904/DTD/svg10.dtd">
<svg version="1.0" xmlns="http://www.w3.org/2000/svg"
 width="300.000000pt" height="74.000000pt" viewBox="0 0 300.000000 74.000000"
 preserveAspectRatio="xMidYMid meet">
<metadata>
Created by potrace 1.10, written by Peter Selinger 2001-2011
</metadata>
<g transform="translate(0.000000,74.000000) scale(0.100000,-0.100000)"
fill="#000000" stroke="none">
<path d="M1280 610 l0 -59 -38 -10 c-21 -6 -46 -17 -57 -25 -19 -14 -24 -11
-72 37 -42 40 -55 49 -65 39 -10 -10 -1 -24 40 -65 47 -47 51 -55 37 -67 -8
-7 -20 -32 -26 -56 l-11 -44 -59 0 c-46 0 -59 -3 -59 -15 0 -12 13 -15 60 -15
59 0 59 0 65 -33 4 -18 15 -43 25 -57 l19 -25 -49 -50 c-37 -38 -47 -54 -40
-65 8 -12 19 -5 62 37 49 48 54 51 73 37 11 -8 36 -19 57 -25 l38 -10 0 -59
c0 -47 3 -60 15 -60 12 0 15 13 15 60 l0 59 38 10 c21 6 46 17 57 25 19 14 24
11 71 -35 41 -41 53 -47 62 -36 9 10 1 24 -38 62 l-48 48 18 41 c10 22 21 49
24 58 4 15 17 18 65 18 49 0 59 3 55 15 -4 9 -24 15 -62 17 -55 3 -56 4 -63
35 -3 18 -14 44 -23 58 -17 26 -17 26 34 72 41 37 48 48 39 60 -10 12 -21 6
-63 -36 -47 -46 -52 -49 -71 -35 -11 8 -37 20 -57 26 l-38 11 0 59 c0 45 -3
58 -15 58 -12 0 -15 -13 -15 -60z m86 -110 c59 -29 95 -85 95 -146 1 -62 -11
-93 -51 -132 -80 -81 -209 -60 -267 43 -51 90 -12 196 87 239 48 21 86 20 136
-4z"/>
<path d="M593 589 c-54 -27 -72 -47 -52 -59 10 -7 16 -4 21 9 9 24 68 51 113
51 63 0 135 -60 135 -114 0 -8 20 -26 44 -40 53 -31 86 -74 86 -110 0 -44 -27
-94 -62 -116 -30 -18 -50 -20 -251 -20 -252 0 -273 5 -302 71 -15 33 -16 45
-7 77 14 44 53 89 87 98 14 3 22 11 19 19 -6 15 51 75 72 75 8 0 14 5 14 11 0
7 -10 9 -27 5 -33 -8 -83 -59 -83 -84 0 -9 -15 -24 -33 -32 -102 -48 -100
-199 4 -252 29 -16 64 -18 248 -18 194 0 219 2 256 20 57 28 89 85 80 143 -9
56 -43 105 -82 119 -22 8 -34 20 -38 38 -3 15 -20 44 -37 64 -55 67 -129 83
-205 45z"/>
<path d="M2165 591 c-52 -23 -75 -49 -54 -61 10 -7 16 -4 21 10 10 26 60 50
106 50 52 0 101 -34 129 -88 12 -24 40 -56 62 -72 22 -16 48 -42 58 -57 22
-33 21 -91 -2 -127 -34 -52 -55 -56 -296 -56 -209 0 -224 1 -256 21 -37 23
-53 53 -53 101 0 58 62 126 117 129 10 0 13 3 6 6 -7 2 -13 11 -13 18 0 17 57
65 78 65 11 0 13 3 5 11 -20 20 -79 -15 -98 -59 -12 -26 -29 -45 -51 -55 -47
-23 -67 -67 -62 -134 5 -59 37 -104 89 -122 15 -5 125 -10 243 -11 231 -1 248
2 292 52 70 76 40 200 -57 237 -17 6 -28 19 -32 38 -8 41 -45 83 -91 104 -52
23 -90 23 -141 0z"/>
<path d="M133 565 l6 -35 -40 0 c-35 0 -39 -3 -39 -25 0 -22 4 -25 39 -25 l40
0 -6 -35 c-5 -33 -4 -35 21 -35 23 0 26 4 26 35 0 33 2 35 35 35 31 0 35 3 35
25 0 22 -4 25 -35 25 -33 0 -35 2 -35 35 0 31 -3 35 -26 35 -25 0 -26 -2 -21
-35z"/>
<path d="M2623 565 l6 -35 -40 0 c-35 0 -39 -3 -39 -25 0 -22 4 -25 38 -25 38
0 38 0 34 -35 -4 -32 -2 -35 22 -35 23 0 26 4 26 35 0 33 2 35 35 35 31 0 35
3 35 25 0 22 -4 25 -35 25 -33 0 -35 2 -35 35 0 31 -3 35 -26 35 -25 0 -26 -2
-21 -35z"/>
<path d="M711 435 c-29 -17 -58 -25 -91 -25 -34 0 -55 -6 -71 -20 l-24 -21 34
17 c22 10 47 14 69 11 26 -5 46 1 88 24 30 17 54 33 54 35 0 9 -17 3 -59 -21z"/>
<path d="M2276 435 c-30 -16 -64 -25 -94 -25 -26 0 -55 -7 -64 -14 -28 -21
-21 -26 13 -9 20 10 44 13 67 9 20 -3 41 -1 48 5 7 5 34 21 61 34 26 13 41 24
32 24 -9 1 -37 -10 -63 -24z"/>
<path d="M1700 215 c0 -33 -2 -35 -35 -35 -31 0 -35 -3 -35 -26 0 -24 3 -26
35 -22 35 4 35 4 35 -34 0 -34 3 -38 26 -38 23 0 25 3 22 37 l-3 38 38 -3 c34
-3 37 -1 37 22 0 24 -4 26 -39 26 l-40 0 6 35 c5 33 4 35 -21 35 -23 0 -26 -4
-26 -35z"/>
<path d="M2842 215 c4 -35 4 -35 -34 -35 -34 0 -38 -3 -38 -25 0 -22 4 -25 35
-25 33 0 35 -2 35 -35 0 -31 3 -35 25 -35 22 0 25 4 25 38 0 38 0 38 35 34 32
-4 35 -2 35 22 0 23 -4 26 -35 26 -33 0 -35 2 -35 35 0 31 -3 35 -26 35 -24 0
-26 -3 -22 -35z"/>
</g>
</svg>
