<?xml version="1.0" standalone="no"?>
<!DOCTYPE svg PUBLIC "-//W3C//DTD SVG 20010904//EN"
 "http://www.w3.org/TR/2001/REC-SVG-20010904/DTD/svg10.dtd">
<svg version="1.0" xmlns="http://www.w3.org/2000/svg"
 width="512.000000pt" height="512.000000pt" viewBox="0 0 512.000000 512.000000"
 preserveAspectRatio="xMidYMid meet">
<metadata>
Created by potrace 1.14, written by Peter Selinger 2001-2017
</metadata>
<g transform="translate(0.000000,512.000000) scale(0.100000,-0.100000)"
fill="#000000" stroke="none">
<path d="M2320 5109 c-491 -47 -981 -246 -1366 -557 -599 -482 -954 -1224
-954 -1992 0 -577 204 -1155 568 -1606 482 -599 1224 -954 1992 -954 577 0
1155 204 1606 568 599 482 954 1224 954 1992 0 577 -204 1155 -568 1606 -433
538 -1071 879 -1767 944 -125 11 -340 11 -465 -1z m472 -1891 l3 -173 173 -3
172 -2 0 -230 0 -230 -175 0 -175 0 0 -420 0 -420 -230 0 -230 0 0 420 0 420
-170 0 -170 0 0 230 0 230 170 0 170 0 0 175 0 175 230 0 230 0 2 -172z
m-1377 -207 c98 -12 185 -43 231 -83 42 -37 96 -131 134 -236 83 -229 81 -541
-6 -689 -45 -77 -150 -180 -218 -213 -106 -52 -206 -73 -319 -66 -192 12 -346
92 -407 213 -22 42 -25 61 -25 148 0 91 2 104 27 147 35 59 96 111 172 147
l60 28 -55 35 c-114 73 -156 155 -147 287 8 112 61 181 183 237 105 48 219 62
370 45z m2537 -5 c136 -25 245 -91 289 -177 43 -85 33 -223 -22 -299 -17 -23
-59 -60 -95 -83 l-64 -41 69 -32 c122 -57 189 -146 199 -269 13 -164 -82 -286
-271 -350 -113 -38 -230 -43 -337 -16 -165 42 -261 106 -350 237 -125 181
-115 544 22 823 50 100 100 152 178 181 100 38 256 48 382 26z"/>
<path d="M2390 3155 l0 -175 -175 0 -175 0 0 -170 0 -170 175 0 175 0 0 -420
0 -420 170 0 170 0 0 420 0 420 175 0 175 0 0 170 0 170 -175 0 -175 0 0 175
0 175 -170 0 -170 0 0 -175z m270 -80 l0 -175 170 0 170 0 0 -95 0 -95 -170 0
-170 0 0 -415 0 -415 -95 0 -95 0 0 415 0 415 -170 0 -170 0 0 95 0 95 170 0
170 0 0 175 0 175 95 0 95 0 0 -175z"/>
<path d="M1192 2835 c-101 -28 -136 -71 -136 -166 1 -102 61 -160 186 -180 34
-6 64 -12 66 -13 2 -2 -1 -37 -5 -77 l-8 -74 -57 -7 c-130 -16 -208 -75 -228
-173 -23 -113 17 -187 130 -239 45 -21 70 -26 136 -26 119 0 200 27 254 86 86
93 126 240 116 424 -9 162 -48 278 -122 359 -47 53 -94 77 -175 91 -80 12 -92
12 -157 -5z"/>
<path d="M3774 2841 c-187 -30 -294 -211 -294 -501 0 -226 70 -379 196 -431
50 -20 76 -24 164 -24 95 0 110 3 163 28 32 16 69 44 84 64 51 67 41 214 -20
271 -34 32 -109 61 -175 68 l-60 7 -6 45 c-3 24 -6 60 -6 78 0 35 -1 34 97 49
49 8 97 37 127 78 17 23 21 43 21 102 0 64 -3 77 -25 101 -52 56 -158 82 -266
65z"/>
</g>
</svg>
