<?xml version="1.0" standalone="no"?>
<!DOCTYPE svg PUBLIC "-//W3C//DTD SVG 20010904//EN"
 "http://www.w3.org/TR/2001/REC-SVG-20010904/DTD/svg10.dtd">
<svg version="1.0" xmlns="http://www.w3.org/2000/svg"
 width="280.000000pt" height="280.000000pt" viewBox="0 0 280.000000 280.000000"
 preserveAspectRatio="xMidYMid meet">
<g transform="translate(0.000000,280.000000) scale(0.100000,-0.100000)"
fill="#000000" stroke="none">
<path d="M1460 1792 c-23 -7 -20 -10 38 -37 66 -30 79 -47 16 -20 -66 27 -190
55 -247 55 -77 0 -91 -15 -85 -95 12 -141 158 -318 301 -365 54 -17 41 -22
-16 -5 -92 28 -186 100 -251 194 -32 46 -66 140 -66 181 l0 30 -67 0 c-211 0
-471 -83 -703 -224 -100 -61 -262 -180 -293 -214 l-19 -21 64 15 c299 71 530
27 674 -129 l54 -58 0 96 0 96 116 -3 116 -3 45 -85 c25 -47 48 -88 52 -92 6
-7 47 61 89 150 l16 32 118 0 118 0 0 -185 c0 -111 4 -185 10 -185 5 0 24 18
42 41 64 80 150 109 324 109 122 0 127 2 106 46 -29 61 -38 57 361 139 121 25
241 55 268 66 42 19 52 29 79 82 38 76 39 110 4 126 -31 14 -29 15 -48 -29
l-16 -35 3 43 2 43 -60 25 c-166 70 -448 148 -690 190 -145 26 -407 40 -455
26z m-105 -123 c41 -17 93 -48 117 -70 41 -38 42 -39 11 -24 -37 18 -40 15
-17 -20 19 -29 13 -31 -22 -9 -37 25 -37 13 -2 -31 30 -36 31 -38 9 -32 -21 5
-22 5 -7 -16 9 -12 21 -30 27 -41 11 -18 10 -18 -21 0 -85 50 -200 196 -200
254 0 27 18 26 105 -11z m608 -49 c68 -10 247 -50 257 -57 15 -12 -37 -23
-113 -23 -92 0 -149 16 -172 47 -7 10 -28 23 -46 29 -43 16 -18 17 74 4z m152
-324 c-150 -48 -198 -87 -182 -146 8 -31 -2 -24 -18 12 -16 40 -8 58 42 88 42
25 176 69 208 68 11 0 -11 -10 -50 -22z"/>
<path d="M1090 896 l0 -146 105 0 105 0 0 148 0 147 -39 -64 c-62 -101 -63
-101 -102 -39 -73 117 -69 119 -69 -46z"/>
</g>
</svg>
