<?xml version="1.0" encoding="utf-8"?>
<!-- Uploaded to: SVG Repo, www.svgrepo.com, Generator: SVG Repo Mixer Tools -->
<svg fill="#000000" width="800px" height="800px" viewBox="0 0 32 32" version="1.1" xmlns="http://www.w3.org/2000/svg">
<title>ear-slash</title>
<path d="M20.592 23.441c-0.128-0.048-0.275-0.076-0.43-0.076-0.536 0-0.994 0.337-1.171 0.812l-0.003 0.009-0.102 0.299c-0.098 0.328-0.168 0.711-0.196 1.105l-0.001 0.018c-0.013 0.22-0.046 0.426-0.097 0.624l0.005-0.022c-0.083 0.282-0.177 0.522-0.288 0.752l0.013-0.029c-0.221 0.428-0.506 0.791-0.846 1.092l-0.004 0.003c-0.732 0.622-1.656 1.040-2.671 1.156l-0.023 0.002c-0.235 0.033-0.506 0.052-0.781 0.052-0.818 0-1.597-0.167-2.304-0.469l0.038 0.015c-0.893-0.371-1.607-1.022-2.049-1.842l-0.011-0.022c-0.266-0.544-0.422-1.183-0.422-1.859 0-0.021 0-0.043 0-0.064l-0 0.003c0-0.69-0.56-1.25-1.25-1.25s-1.25 0.56-1.25 1.25v0c-0 0.018-0 0.038-0 0.059 0 1.085 0.254 2.111 0.706 3.021l-0.018-0.040c0.72 1.368 1.868 2.429 3.262 3.023l0.043 0.016c0.947 0.415 2.051 0.656 3.211 0.656 0.011 0 0.022-0 0.034-0h-0.002c0.392-0 0.778-0.026 1.156-0.075l-0.045 0.005c1.561-0.182 2.947-0.821 4.049-1.779l-0.009 0.008c0.574-0.512 1.049-1.12 1.402-1.801l0.016-0.035c0.155-0.309 0.301-0.675 0.417-1.055l0.013-0.050c0.096-0.323 0.165-0.699 0.192-1.087l0.001-0.017c0.014-0.227 0.048-0.44 0.101-0.644l-0.005 0.023 0.063-0.184c0.048-0.128 0.076-0.275 0.076-0.429 0-0.536-0.337-0.993-0.812-1.171l-0.009-0.003zM12 24.695c1.816-0.058 3.266-1.543 3.266-3.368 0-0.115-0.006-0.229-0.017-0.341l0.001 0.014c0.003-0.487 0.151-0.938 0.404-1.313l-0.005 0.008c0.132-0.195 0.211-0.436 0.211-0.695 0-0.69-0.559-1.249-1.249-1.249-0.431 0-0.811 0.218-1.035 0.55l-0.003 0.004c-0.512 0.758-0.818 1.69-0.822 2.694v0.001c0 0.727-0.294 1.195-0.75 1.195s-0.75-0.469-0.75-1.195c0-0.69-0.56-1.25-1.25-1.25s-1.25 0.56-1.25 1.25v0c-0.010 0.098-0.016 0.212-0.016 0.327 0 1.825 1.45 3.31 3.261 3.368l0.005 0zM30.885 29.115l-7.577-7.577c0.136-0.148 0.261-0.307 0.401-0.449 0.262-0.26 0.521-0.523 0.762-0.814 1.214-1.476 2.104-3.266 2.534-5.228l0.015-0.083c0.151-0.76 0.238-1.634 0.238-2.528 0-0.154-0.003-0.307-0.008-0.459l0.001 0.022c0-7.27-4.723-10.544-8.766-11.14-0.463-0.075-0.996-0.119-1.539-0.119-3.884 0-7.253 2.201-8.929 5.424l-0.026 0.056-5.106-5.105c-0.226-0.225-0.537-0.363-0.881-0.363-0.69 0-1.25 0.56-1.25 1.25 0 0.344 0.139 0.655 0.363 0.881l27.999 28.001c0.226 0.226 0.539 0.366 0.884 0.366 0.691 0 1.251-0.56 1.251-1.251 0-0.345-0.14-0.658-0.366-0.884l0 0zM18.121 3.334c3.057 0.45 6.629 2.99 6.629 8.666 0.005 0.124 0.008 0.27 0.008 0.416 0 0.717-0.067 1.418-0.194 2.098l0.011-0.070c-0.241 1.112-0.633 2.096-1.162 2.991l0.025-0.046c-0.286 0.493-0.583 0.917-0.911 1.315l0.013-0.016c-0.188 0.227-0.393 0.432-0.598 0.635-0.134 0.134-0.276 0.282-0.418 0.432l-2.339-2.339c0.604-0.871 0.965-1.951 0.965-3.116 0-1.199-0.383-2.309-1.034-3.214l0.011 0.016c-0.998-1.28-2.54-2.096-4.273-2.096-0.065 0-0.13 0.001-0.194 0.003l0.009-0c-0.426 0.026-0.824 0.099-1.203 0.215l0.037-0.010c0.643-1.309 1.967-2.194 3.497-2.194 0.062 0 0.123 0.001 0.184 0.004l-0.009-0c2.248 0.209 3.994 2.086 3.994 4.371 0 0.213-0.015 0.423-0.045 0.627l0.003-0.023c0 0.69 0.56 1.25 1.25 1.25s1.25-0.56 1.25-1.25v0c0.020-0.197 0.032-0.426 0.032-0.657 0-3.613-2.806-6.571-6.357-6.813l-0.021-0.001c-0.061-0.002-0.133-0.003-0.206-0.003-2.902 0-5.36 1.904-6.192 4.531l-0.013 0.046-0.97-0.97c1.112-2.88 3.859-4.886 7.074-4.886 0.405 0 0.802 0.032 1.19 0.093l-0.043-0.006zM13.62 11.851c0.337-0.192 0.735-0.316 1.16-0.343l0.008-0c0.030-0.001 0.064-0.002 0.099-0.002 0.91 0 1.72 0.429 2.239 1.095l0.005 0.006c0.328 0.474 0.524 1.060 0.524 1.693 0 0.47-0.108 0.915-0.301 1.311l0.008-0.018z"></path>
</svg>