<!DOCTYPE svg PUBLIC "-//W3C//DTD SVG 1.1//EN" "http://www.w3.org/Graphics/SVG/1.1/DTD/svg11.dtd">

<!-- Uploaded to: SVG Repo, www.svgrepo.com, Transformed by: SVG Repo Mixer Tools -->
<svg width="800px" height="800px" viewBox="0 0 24 24" fill="none" xmlns="http://www.w3.org/2000/svg">

<g id="SVGRepo_bgCarrier" stroke-width="0"/>

<g id="SVGRepo_tracerCarrier" stroke-linecap="round" stroke-linejoin="round"/>

<g id="SVGRepo_iconCarrier"> 

<path fill-rule="evenodd" clip-rule="evenodd" d="M13.3636 5.25C12.2716 5.25 11.3864 6.13525 11.3864 7.22727V7.97727L7.97727 7.97727L7.97727 11.3864H7.22727C6.13526 11.3864 5.25 12.2716 5.25 13.3636C5.25 14.4557 6.13526 15.3409 7.22727 15.3409H7.97727L7.97727 18.75L18.75 18.75V16.7598C17.1901 16.4169 16.0227 15.0266 16.0227 13.3636C16.0227 11.7007 17.1901 10.3104 18.75 9.96745V7.97727L15.3409 7.97727V7.22727C15.3409 6.13526 14.4557 5.25 13.3636 5.25ZM9.96745 6.47727C10.3104 4.91733 11.7007 3.75 13.3636 3.75C15.0266 3.75 16.4169 4.91733 16.7598 6.47727L20.25 6.47727V11.3864L19.5 11.3864C18.408 11.3864 17.5227 12.2716 17.5227 13.3636C17.5227 14.4557 18.408 15.3409 19.5 15.3409H20.25V20.25L6.47727 20.25L6.47727 16.7598C4.91733 16.4169 3.75 15.0266 3.75 13.3636C3.75 11.7007 4.91733 10.3104 6.47727 9.96745L6.47727 6.47727L9.96745 6.47727Z" fill="#080341"/> 

</g>

</svg>