<?xml version="1.0" standalone="no"?>
<!DOCTYPE svg PUBLIC "-//W3C//DTD SVG 20010904//EN"
 "http://www.w3.org/TR/2001/REC-SVG-20010904/DTD/svg10.dtd">
<svg version="1.0" xmlns="http://www.w3.org/2000/svg"
 width="512.000000pt" height="512.000000pt" viewBox="0 0 512.000000 512.000000"
 preserveAspectRatio="xMidYMid meet">
<metadata>
Created by potrace 1.14, written by Peter Selinger 2001-2017
</metadata>
<g transform="translate(0.000000,512.000000) scale(0.100000,-0.100000)"
fill="#000000" stroke="none">
<path d="M2330 3225 l0 -175 -172 -2 -173 -3 -3 -232 -2 -233 175 0 175 0 0
-420 0 -420 235 0 235 0 0 420 0 420 170 0 170 0 0 235 0 235 -170 0 -170 0 0
175 0 175 -235 0 -235 0 0 -175z m400 -70 l0 -175 170 0 170 0 0 -170 0 -170
-170 0 -170 0 0 -415 0 -415 -170 0 -170 0 0 415 0 415 -170 0 -170 0 0 170 0
170 170 0 170 0 0 175 0 175 170 0 170 0 0 -175z"/>
<path d="M2468 3083 l-3 -178 -172 -3 -173 -2 0 -95 0 -95 175 0 175 0 0 -415
0 -415 95 0 95 0 0 415 0 415 170 0 170 0 0 95 0 95 -170 0 -170 0 0 180 0
180 -95 0 -95 0 -2 -177z"/>
<path d="M1145 3007 c-126 -32 -226 -101 -265 -183 -17 -35 -22 -62 -22 -123
1 -125 39 -193 143 -257 l61 -38 -35 -12 c-65 -23 -146 -84 -184 -139 -35 -51
-56 -140 -49 -207 29 -282 430 -419 765 -261 61 29 148 110 200 186 130 191
112 588 -40 863 -47 86 -83 117 -177 152 -58 22 -86 26 -207 28 -90 2 -158 -1
-190 -9z m305 -202 c60 -30 95 -71 136 -160 76 -166 76 -443 -1 -595 -62 -123
-136 -163 -300 -164 -94 -1 -104 1 -162 31 -88 46 -117 92 -114 186 2 124 77
192 232 211 l56 7 7 52 c3 29 6 67 6 85 0 30 -2 32 -37 32 -91 0 -174 45 -200
108 -23 54 -14 144 18 178 68 74 242 88 359 29z"/>
<path d="M3675 3014 c-164 -40 -217 -79 -279 -203 -131 -261 -155 -595 -56
-791 45 -90 149 -194 234 -234 95 -45 185 -66 287 -66 212 0 407 108 454 250
55 164 -17 326 -177 404 l-70 34 46 27 c65 38 131 115 145 169 36 143 -4 258
-115 331 -93 62 -151 77 -309 81 -77 1 -149 1 -160 -2z m317 -205 c77 -43 99
-132 56 -219 -28 -54 -91 -90 -176 -99 l-57 -6 3 -50 c6 -113 6 -113 70 -120
156 -19 241 -107 230 -240 -6 -77 -36 -118 -116 -157 -60 -30 -75 -33 -157
-33 -111 0 -182 23 -240 76 -165 152 -165 605 0 787 20 23 55 50 78 61 89 43
230 43 309 0z"/>
</g>
</svg>
